%TF.GenerationSoftware,KiCad,Pcbnew,7.0.0-1.fc37*%
%TF.CreationDate,2023-10-17T19:49:34+02:00*%
%TF.ProjectId,boardConsolePCB,626f6172-6443-46f6-9e73-6f6c65504342,rev?*%
%TF.SameCoordinates,Original*%
%TF.FileFunction,Soldermask,Top*%
%TF.FilePolarity,Negative*%
%FSLAX46Y46*%
G04 Gerber Fmt 4.6, Leading zero omitted, Abs format (unit mm)*
G04 Created by KiCad (PCBNEW 7.0.0-1.fc37) date 2023-10-17 19:49:34*
%MOMM*%
%LPD*%
G01*
G04 APERTURE LIST*
G04 Aperture macros list*
%AMRoundRect*
0 Rectangle with rounded corners*
0 $1 Rounding radius*
0 $2 $3 $4 $5 $6 $7 $8 $9 X,Y pos of 4 corners*
0 Add a 4 corners polygon primitive as box body*
4,1,4,$2,$3,$4,$5,$6,$7,$8,$9,$2,$3,0*
0 Add four circle primitives for the rounded corners*
1,1,$1+$1,$2,$3*
1,1,$1+$1,$4,$5*
1,1,$1+$1,$6,$7*
1,1,$1+$1,$8,$9*
0 Add four rect primitives between the rounded corners*
20,1,$1+$1,$2,$3,$4,$5,0*
20,1,$1+$1,$4,$5,$6,$7,0*
20,1,$1+$1,$6,$7,$8,$9,0*
20,1,$1+$1,$8,$9,$2,$3,0*%
%AMFreePoly0*
4,1,6,1.000000,0.000000,0.500000,-0.750000,-0.500000,-0.750000,-0.500000,0.750000,0.500000,0.750000,1.000000,0.000000,1.000000,0.000000,$1*%
%AMFreePoly1*
4,1,6,0.500000,-0.750000,-0.650000,-0.750000,-0.150000,0.000000,-0.650000,0.750000,0.500000,0.750000,0.500000,-0.750000,0.500000,-0.750000,$1*%
G04 Aperture macros list end*
%ADD10RoundRect,0.225000X-0.225000X-0.250000X0.225000X-0.250000X0.225000X0.250000X-0.225000X0.250000X0*%
%ADD11RoundRect,0.200000X0.200000X0.275000X-0.200000X0.275000X-0.200000X-0.275000X0.200000X-0.275000X0*%
%ADD12RoundRect,0.225000X0.225000X0.250000X-0.225000X0.250000X-0.225000X-0.250000X0.225000X-0.250000X0*%
%ADD13RoundRect,0.200000X-0.200000X-0.275000X0.200000X-0.275000X0.200000X0.275000X-0.200000X0.275000X0*%
%ADD14R,1.600000X1.600000*%
%ADD15C,1.600000*%
%ADD16R,2.400000X2.400000*%
%ADD17C,2.400000*%
%ADD18RoundRect,0.218750X-0.218750X-0.256250X0.218750X-0.256250X0.218750X0.256250X-0.218750X0.256250X0*%
%ADD19RoundRect,0.200000X0.275000X-0.200000X0.275000X0.200000X-0.275000X0.200000X-0.275000X-0.200000X0*%
%ADD20RoundRect,0.225000X-0.250000X0.225000X-0.250000X-0.225000X0.250000X-0.225000X0.250000X0.225000X0*%
%ADD21RoundRect,0.250000X-0.312500X-0.625000X0.312500X-0.625000X0.312500X0.625000X-0.312500X0.625000X0*%
%ADD22R,2.600000X3.600000*%
%ADD23C,2.000000*%
%ADD24RoundRect,0.250000X-0.850000X-0.350000X0.850000X-0.350000X0.850000X0.350000X-0.850000X0.350000X0*%
%ADD25RoundRect,0.249997X-2.950003X-2.650003X2.950003X-2.650003X2.950003X2.650003X-2.950003X2.650003X0*%
%ADD26FreePoly0,90.000000*%
%ADD27FreePoly1,90.000000*%
%ADD28RoundRect,0.218750X0.218750X0.256250X-0.218750X0.256250X-0.218750X-0.256250X0.218750X-0.256250X0*%
%ADD29R,1.700000X1.700000*%
%ADD30O,1.700000X1.700000*%
%ADD31RoundRect,0.250000X-0.362500X-1.425000X0.362500X-1.425000X0.362500X1.425000X-0.362500X1.425000X0*%
%ADD32R,2.000000X2.000000*%
%ADD33RoundRect,0.225000X0.250000X-0.225000X0.250000X0.225000X-0.250000X0.225000X-0.250000X-0.225000X0*%
%ADD34RoundRect,0.200000X-0.275000X0.200000X-0.275000X-0.200000X0.275000X-0.200000X0.275000X0.200000X0*%
%ADD35O,1.600000X1.600000*%
%ADD36RoundRect,0.250000X0.625000X-0.375000X0.625000X0.375000X-0.625000X0.375000X-0.625000X-0.375000X0*%
%ADD37RoundRect,0.100000X-0.100000X0.637500X-0.100000X-0.637500X0.100000X-0.637500X0.100000X0.637500X0*%
%ADD38RoundRect,0.250000X0.450000X-0.262500X0.450000X0.262500X-0.450000X0.262500X-0.450000X-0.262500X0*%
%ADD39C,6.400000*%
%ADD40RoundRect,0.250000X0.600000X-0.400000X0.600000X0.400000X-0.600000X0.400000X-0.600000X-0.400000X0*%
%ADD41C,3.000000*%
%ADD42RoundRect,0.062500X0.062500X-0.117500X0.062500X0.117500X-0.062500X0.117500X-0.062500X-0.117500X0*%
%ADD43C,6.500000*%
%ADD44RoundRect,0.250000X0.312500X0.625000X-0.312500X0.625000X-0.312500X-0.625000X0.312500X-0.625000X0*%
%ADD45RoundRect,0.075000X-0.075000X0.700000X-0.075000X-0.700000X0.075000X-0.700000X0.075000X0.700000X0*%
%ADD46RoundRect,0.075000X-0.700000X0.075000X-0.700000X-0.075000X0.700000X-0.075000X0.700000X0.075000X0*%
%ADD47R,1.500000X1.050000*%
%ADD48O,1.500000X1.050000*%
%ADD49RoundRect,0.250000X-0.400000X-0.600000X0.400000X-0.600000X0.400000X0.600000X-0.400000X0.600000X0*%
%ADD50RoundRect,0.150000X-0.587500X-0.150000X0.587500X-0.150000X0.587500X0.150000X-0.587500X0.150000X0*%
%ADD51RoundRect,0.062500X-0.062500X0.117500X-0.062500X-0.117500X0.062500X-0.117500X0.062500X0.117500X0*%
%ADD52RoundRect,0.250000X0.400000X0.600000X-0.400000X0.600000X-0.400000X-0.600000X0.400000X-0.600000X0*%
%ADD53RoundRect,0.250000X-1.000000X-0.900000X1.000000X-0.900000X1.000000X0.900000X-1.000000X0.900000X0*%
%ADD54RoundRect,0.250000X-1.000000X-0.650000X1.000000X-0.650000X1.000000X0.650000X-1.000000X0.650000X0*%
%ADD55RoundRect,0.200000X-0.700000X-0.200000X0.700000X-0.200000X0.700000X0.200000X-0.700000X0.200000X0*%
%ADD56C,2.340000*%
%ADD57R,4.500000X2.000000*%
G04 APERTURE END LIST*
D10*
%TO.C,C11*%
X110450000Y-97000000D03*
X112000000Y-97000000D03*
%TD*%
D11*
%TO.C,R41*%
X204600000Y-94600000D03*
X202950000Y-94600000D03*
%TD*%
%TO.C,R36*%
X204400000Y-84400000D03*
X202750000Y-84400000D03*
%TD*%
D12*
%TO.C,C29*%
X201475000Y-94600000D03*
X199925000Y-94600000D03*
%TD*%
D13*
%TO.C,R35*%
X140175000Y-90000000D03*
X141825000Y-90000000D03*
%TD*%
D14*
%TO.C,C28*%
X171649999Y-116749999D03*
D15*
X171650000Y-120250000D03*
%TD*%
D14*
%TO.C,C10*%
X197849999Y-87249999D03*
D15*
X197850000Y-83750000D03*
%TD*%
D16*
%TO.C,C31*%
X183399999Y-66699999D03*
D17*
X183400000Y-71700000D03*
%TD*%
D14*
%TO.C,C24*%
X197549999Y-118649999D03*
D15*
X197550000Y-122150000D03*
%TD*%
D14*
%TO.C,C18*%
X150149999Y-97649999D03*
D15*
X146650000Y-97650000D03*
%TD*%
D18*
%TO.C,D1*%
X212600000Y-78100000D03*
X214175000Y-78100000D03*
%TD*%
D19*
%TO.C,R27*%
X110750000Y-91562500D03*
X110750000Y-89912500D03*
%TD*%
D20*
%TO.C,L1*%
X217900000Y-107975000D03*
X217900000Y-109525000D03*
%TD*%
D13*
%TO.C,R33*%
X115375000Y-105200000D03*
X117025000Y-105200000D03*
%TD*%
%TO.C,R39*%
X132150000Y-110090000D03*
X133800000Y-110090000D03*
%TD*%
D19*
%TO.C,R37*%
X140600000Y-85525000D03*
X140600000Y-83875000D03*
%TD*%
D12*
%TO.C,C9*%
X138750000Y-85700000D03*
X137200000Y-85700000D03*
%TD*%
D13*
%TO.C,R40*%
X132150000Y-112600000D03*
X133800000Y-112600000D03*
%TD*%
D12*
%TO.C,C40*%
X207550000Y-84400000D03*
X206000000Y-84400000D03*
%TD*%
D18*
%TO.C,D6*%
X212600000Y-76200000D03*
X214175000Y-76200000D03*
%TD*%
%TO.C,D4*%
X212600000Y-70500000D03*
X214175000Y-70500000D03*
%TD*%
D21*
%TO.C,R15*%
X204512500Y-82400000D03*
X207437500Y-82400000D03*
%TD*%
D22*
%TO.C,BT1*%
X149649999Y-68999999D03*
X178949999Y-68999999D03*
%TD*%
D23*
%TO.C,C2*%
X108150000Y-129100000D03*
X115650000Y-129100000D03*
%TD*%
D24*
%TO.C,U6*%
X163025000Y-90245000D03*
D25*
X169325000Y-92525000D03*
D24*
X163025000Y-94805000D03*
%TD*%
D10*
%TO.C,C32*%
X105450000Y-92500000D03*
X107000000Y-92500000D03*
%TD*%
D13*
%TO.C,R24*%
X102175000Y-92490000D03*
X103825000Y-92490000D03*
%TD*%
D11*
%TO.C,R13*%
X144825000Y-91000000D03*
X143175000Y-91000000D03*
%TD*%
D26*
%TO.C,JP4*%
X140800000Y-119425000D03*
D27*
X140800000Y-117975000D03*
%TD*%
D28*
%TO.C,F3*%
X202150000Y-93000000D03*
X200575000Y-93000000D03*
%TD*%
D29*
%TO.C,J5*%
X226299999Y-82959999D03*
D30*
X226299999Y-85499999D03*
%TD*%
D31*
%TO.C,R16*%
X108937500Y-135400000D03*
X114862500Y-135400000D03*
%TD*%
D32*
%TO.C,TP3*%
X98899999Y-113099999D03*
%TD*%
D10*
%TO.C,C5*%
X148225000Y-76000000D03*
X149775000Y-76000000D03*
%TD*%
D33*
%TO.C,C7*%
X207650000Y-109525000D03*
X207650000Y-107975000D03*
%TD*%
D34*
%TO.C,R14*%
X213300000Y-93200000D03*
X213300000Y-94850000D03*
%TD*%
D10*
%TO.C,C25*%
X214400000Y-109500000D03*
X215950000Y-109500000D03*
%TD*%
D14*
%TO.C,U9*%
X178899999Y-91799999D03*
D35*
X178899999Y-94339999D03*
X178899999Y-96879999D03*
X178899999Y-99419999D03*
X186519999Y-99419999D03*
X186519999Y-96879999D03*
X186519999Y-94339999D03*
X186519999Y-91799999D03*
%TD*%
D36*
%TO.C,F1*%
X158000000Y-106200000D03*
X158000000Y-103400000D03*
%TD*%
D20*
%TO.C,C36*%
X121250000Y-87975000D03*
X121250000Y-89525000D03*
%TD*%
D37*
%TO.C,U8*%
X124425000Y-105137500D03*
X123775000Y-105137500D03*
X123125000Y-105137500D03*
X122475000Y-105137500D03*
X121825000Y-105137500D03*
X121175000Y-105137500D03*
X120525000Y-105137500D03*
X119875000Y-105137500D03*
X119225000Y-105137500D03*
X118575000Y-105137500D03*
X118575000Y-110862500D03*
X119225000Y-110862500D03*
X119875000Y-110862500D03*
X120525000Y-110862500D03*
X121175000Y-110862500D03*
X121825000Y-110862500D03*
X122475000Y-110862500D03*
X123125000Y-110862500D03*
X123775000Y-110862500D03*
X124425000Y-110862500D03*
%TD*%
D38*
%TO.C,R29*%
X109000000Y-85300000D03*
X109000000Y-83475000D03*
%TD*%
D33*
%TO.C,C21*%
X112750000Y-88472500D03*
X112750000Y-86922500D03*
%TD*%
D10*
%TO.C,C16*%
X158125000Y-100600000D03*
X159675000Y-100600000D03*
%TD*%
D33*
%TO.C,C27*%
X217650000Y-103525000D03*
X217650000Y-101975000D03*
%TD*%
D10*
%TO.C,C34*%
X193350000Y-116850000D03*
X194900000Y-116850000D03*
%TD*%
D31*
%TO.C,R3*%
X123437500Y-129200000D03*
X129362500Y-129200000D03*
%TD*%
D14*
%TO.C,U1*%
X153799999Y-113499999D03*
D35*
X153799999Y-116039999D03*
X153799999Y-118579999D03*
X153799999Y-121119999D03*
X161419999Y-121119999D03*
X161419999Y-118579999D03*
X161419999Y-116039999D03*
X161419999Y-113499999D03*
%TD*%
D18*
%TO.C,F2*%
X201350000Y-82800000D03*
X202925000Y-82800000D03*
%TD*%
D13*
%TO.C,R22*%
X101850000Y-99325000D03*
X103500000Y-99325000D03*
%TD*%
D29*
%TO.C,J3*%
X102419999Y-76499999D03*
D30*
X104959999Y-76499999D03*
X107499999Y-76499999D03*
X110039999Y-76499999D03*
X112579999Y-76499999D03*
%TD*%
D12*
%TO.C,C39*%
X206637500Y-90400000D03*
X205087500Y-90400000D03*
%TD*%
D39*
%TO.C,H4*%
X211500000Y-142000000D03*
%TD*%
D38*
%TO.C,R30*%
X111500000Y-85300000D03*
X111500000Y-83475000D03*
%TD*%
D40*
%TO.C,D13*%
X147100000Y-87050000D03*
X147100000Y-83550000D03*
%TD*%
D26*
%TO.C,JP2*%
X143400000Y-119425000D03*
D27*
X143400000Y-117975000D03*
%TD*%
D34*
%TO.C,R32*%
X214900000Y-93175000D03*
X214900000Y-94825000D03*
%TD*%
D10*
%TO.C,C4*%
X164100000Y-117400000D03*
X165650000Y-117400000D03*
%TD*%
D24*
%TO.C,U2*%
X163000000Y-103500000D03*
D25*
X169300000Y-105780000D03*
D24*
X163000000Y-108060000D03*
%TD*%
D18*
%TO.C,D8*%
X212600000Y-74300000D03*
X214175000Y-74300000D03*
%TD*%
D31*
%TO.C,R34*%
X131237500Y-129200000D03*
X137162500Y-129200000D03*
%TD*%
D11*
%TO.C,R12*%
X144825000Y-93000000D03*
X143175000Y-93000000D03*
%TD*%
D29*
%TO.C,J6*%
X222399999Y-82959999D03*
D30*
X222399999Y-85499999D03*
X222399999Y-88039999D03*
X222399999Y-90579999D03*
%TD*%
D13*
%TO.C,R2*%
X139975000Y-126400000D03*
X141625000Y-126400000D03*
%TD*%
D31*
%TO.C,R17*%
X108937500Y-129100000D03*
X114862500Y-129100000D03*
%TD*%
D41*
%TO.C,J2*%
X223910000Y-109500000D03*
X221370000Y-106960000D03*
X221370000Y-112040000D03*
X226450000Y-106960000D03*
X226450000Y-112040000D03*
%TD*%
D42*
%TO.C,D10*%
X210500000Y-81780000D03*
X210500000Y-82620000D03*
%TD*%
D43*
%TO.C,U7*%
X100420000Y-84500000D03*
X100420000Y-121500000D03*
X215420000Y-84500000D03*
X215420000Y-121500000D03*
D30*
X145999999Y-122499999D03*
X143459999Y-122499999D03*
X140919999Y-122499999D03*
X138379999Y-122499999D03*
X135839999Y-122499999D03*
X133299999Y-122499999D03*
X130759999Y-122499999D03*
X128219999Y-122499999D03*
X125679999Y-122499999D03*
X123139999Y-122499999D03*
X120599999Y-122499999D03*
X118059999Y-122499999D03*
X115519999Y-122499999D03*
X112979999Y-122499999D03*
X110439999Y-122499999D03*
X107899999Y-122499999D03*
%TD*%
D29*
%TO.C,J4*%
X126379999Y-76499999D03*
D30*
X128919999Y-76499999D03*
X131459999Y-76499999D03*
X133999999Y-76499999D03*
X136539999Y-76499999D03*
X139079999Y-76499999D03*
%TD*%
D32*
%TO.C,LS1*%
X154399999Y-92699999D03*
D23*
X154400000Y-85100000D03*
%TD*%
D39*
%TO.C,H3*%
X104500000Y-142000000D03*
%TD*%
D33*
%TO.C,C20*%
X110760000Y-88542500D03*
X110760000Y-86992500D03*
%TD*%
D44*
%TO.C,R7*%
X149962500Y-78300000D03*
X147037500Y-78300000D03*
%TD*%
D10*
%TO.C,C14*%
X135725000Y-87500000D03*
X137275000Y-87500000D03*
%TD*%
D32*
%TO.C,TP7*%
X102999999Y-104999999D03*
%TD*%
D45*
%TO.C,U3*%
X134000000Y-88825000D03*
X133500000Y-88825000D03*
X133000000Y-88825000D03*
X132500000Y-88825000D03*
X132000000Y-88825000D03*
X131500000Y-88825000D03*
X131000000Y-88825000D03*
X130500000Y-88825000D03*
X130000000Y-88825000D03*
X129500000Y-88825000D03*
X129000000Y-88825000D03*
X128500000Y-88825000D03*
X128000000Y-88825000D03*
X127500000Y-88825000D03*
X127000000Y-88825000D03*
X126500000Y-88825000D03*
D46*
X124575000Y-90750000D03*
X124575000Y-91250000D03*
X124575000Y-91750000D03*
X124575000Y-92250000D03*
X124575000Y-92750000D03*
X124575000Y-93250000D03*
X124575000Y-93750000D03*
X124575000Y-94250000D03*
X124575000Y-94750000D03*
X124575000Y-95250000D03*
X124575000Y-95750000D03*
X124575000Y-96250000D03*
X124575000Y-96750000D03*
X124575000Y-97250000D03*
X124575000Y-97750000D03*
X124575000Y-98250000D03*
D45*
X126500000Y-100175000D03*
X127000000Y-100175000D03*
X127500000Y-100175000D03*
X128000000Y-100175000D03*
X128500000Y-100175000D03*
X129000000Y-100175000D03*
X129500000Y-100175000D03*
X130000000Y-100175000D03*
X130500000Y-100175000D03*
X131000000Y-100175000D03*
X131500000Y-100175000D03*
X132000000Y-100175000D03*
X132500000Y-100175000D03*
X133000000Y-100175000D03*
X133500000Y-100175000D03*
X134000000Y-100175000D03*
D46*
X135925000Y-98250000D03*
X135925000Y-97750000D03*
X135925000Y-97250000D03*
X135925000Y-96750000D03*
X135925000Y-96250000D03*
X135925000Y-95750000D03*
X135925000Y-95250000D03*
X135925000Y-94750000D03*
X135925000Y-94250000D03*
X135925000Y-93750000D03*
X135925000Y-93250000D03*
X135925000Y-92750000D03*
X135925000Y-92250000D03*
X135925000Y-91750000D03*
X135925000Y-91250000D03*
X135925000Y-90750000D03*
%TD*%
D12*
%TO.C,C17*%
X164800000Y-100500000D03*
X163250000Y-100500000D03*
%TD*%
D33*
%TO.C,C26*%
X215900000Y-103525000D03*
X215900000Y-101975000D03*
%TD*%
D20*
%TO.C,C35*%
X119500000Y-87950000D03*
X119500000Y-89500000D03*
%TD*%
D39*
%TO.C,H2*%
X211500000Y-64000000D03*
%TD*%
D47*
%TO.C,Q1*%
X141539999Y-129729999D03*
D48*
X141539999Y-130999999D03*
X141539999Y-132269999D03*
%TD*%
D29*
%TO.C,J1*%
X101899999Y-134199999D03*
%TD*%
D10*
%TO.C,C22*%
X157975000Y-97500000D03*
X159525000Y-97500000D03*
%TD*%
D13*
%TO.C,R23*%
X105175000Y-99325000D03*
X106825000Y-99325000D03*
%TD*%
D32*
%TO.C,TP8*%
X102999999Y-109049999D03*
%TD*%
D19*
%TO.C,R28*%
X112730000Y-91492500D03*
X112730000Y-89842500D03*
%TD*%
D49*
%TO.C,D5*%
X152000000Y-79000000D03*
X155500000Y-79000000D03*
%TD*%
D50*
%TO.C,Q2*%
X142962500Y-83850000D03*
X142962500Y-85750000D03*
X144837500Y-84800000D03*
%TD*%
D20*
%TO.C,C37*%
X117750000Y-87975000D03*
X117750000Y-89525000D03*
%TD*%
D10*
%TO.C,C1*%
X163625000Y-121300000D03*
X165175000Y-121300000D03*
%TD*%
D33*
%TO.C,C19*%
X108750000Y-88542500D03*
X108750000Y-86992500D03*
%TD*%
D32*
%TO.C,TP5*%
X98949999Y-109049999D03*
%TD*%
D13*
%TO.C,R8*%
X201575000Y-99200000D03*
X203225000Y-99200000D03*
%TD*%
D51*
%TO.C,D11*%
X209200000Y-88240000D03*
X209200000Y-87400000D03*
%TD*%
D39*
%TO.C,H1*%
X104500000Y-64000000D03*
%TD*%
D52*
%TO.C,D9*%
X150000000Y-61250000D03*
X146500000Y-61250000D03*
%TD*%
D32*
%TO.C,TP9*%
X102999999Y-113099999D03*
%TD*%
D18*
%TO.C,D3*%
X212600000Y-72400000D03*
X214175000Y-72400000D03*
%TD*%
D53*
%TO.C,D2*%
X131550000Y-133500000D03*
X135850000Y-133500000D03*
%TD*%
D34*
%TO.C,R11*%
X189200000Y-109475000D03*
X189200000Y-111125000D03*
%TD*%
D33*
%TO.C,C8*%
X212650000Y-109525000D03*
X212650000Y-107975000D03*
%TD*%
D38*
%TO.C,R31*%
X113750000Y-85300000D03*
X113750000Y-83475000D03*
%TD*%
D10*
%TO.C,C33*%
X193350000Y-115100000D03*
X194900000Y-115100000D03*
%TD*%
D13*
%TO.C,R10*%
X212325000Y-103500000D03*
X213975000Y-103500000D03*
%TD*%
D11*
%TO.C,R5*%
X165725000Y-115800000D03*
X164075000Y-115800000D03*
%TD*%
D54*
%TO.C,D7*%
X155900000Y-109500000D03*
X159900000Y-109500000D03*
%TD*%
D34*
%TO.C,R25*%
X104000000Y-94175000D03*
X104000000Y-95825000D03*
%TD*%
D21*
%TO.C,R18*%
X203700000Y-92600000D03*
X206625000Y-92600000D03*
%TD*%
D55*
%TO.C,U5*%
X193400000Y-101850000D03*
X193400000Y-102950000D03*
X193400000Y-104050000D03*
X193400000Y-105150000D03*
X193400000Y-106250000D03*
X193400000Y-107350000D03*
X193400000Y-108450000D03*
X193400000Y-109550000D03*
X193400000Y-110650000D03*
X203100000Y-110650000D03*
X203100000Y-109550000D03*
X203100000Y-108450000D03*
X203100000Y-107350000D03*
X203100000Y-106250000D03*
X203100000Y-105150000D03*
X203100000Y-104050000D03*
X203100000Y-102950000D03*
X203100000Y-101850000D03*
%TD*%
D19*
%TO.C,R20*%
X189500000Y-105200000D03*
X189500000Y-103550000D03*
%TD*%
D10*
%TO.C,C6*%
X193325000Y-113350000D03*
X194875000Y-113350000D03*
%TD*%
%TO.C,C38*%
X181025000Y-89100000D03*
X182575000Y-89100000D03*
%TD*%
D13*
%TO.C,R38*%
X142875000Y-81900000D03*
X144525000Y-81900000D03*
%TD*%
D26*
%TO.C,JP1*%
X146000000Y-119425000D03*
D27*
X146000000Y-117975000D03*
%TD*%
D19*
%TO.C,R4*%
X211700000Y-94850000D03*
X211700000Y-93200000D03*
%TD*%
D12*
%TO.C,C12*%
X138775000Y-84000000D03*
X137225000Y-84000000D03*
%TD*%
%TO.C,C23*%
X165025000Y-87250000D03*
X163475000Y-87250000D03*
%TD*%
D19*
%TO.C,R21*%
X189500000Y-101900000D03*
X189500000Y-100250000D03*
%TD*%
D10*
%TO.C,C13*%
X119725000Y-84000000D03*
X121275000Y-84000000D03*
%TD*%
D26*
%TO.C,JP3*%
X148600000Y-119425000D03*
D27*
X148600000Y-117975000D03*
%TD*%
D50*
%TO.C,Q3*%
X136487500Y-112050000D03*
X136487500Y-113950000D03*
X138362500Y-113000000D03*
%TD*%
D13*
%TO.C,R19*%
X119675000Y-86000000D03*
X121325000Y-86000000D03*
%TD*%
D56*
%TO.C,RV1*%
X94700000Y-98275000D03*
X89700000Y-95775000D03*
X94700000Y-93275000D03*
%TD*%
D23*
%TO.C,C3*%
X108150000Y-135400000D03*
X115650000Y-135400000D03*
%TD*%
D19*
%TO.C,R6*%
X210100000Y-94850000D03*
X210100000Y-93200000D03*
%TD*%
D57*
%TO.C,Y2*%
X133499999Y-83999999D03*
X124999999Y-83999999D03*
%TD*%
D10*
%TO.C,C15*%
X136725000Y-89000000D03*
X138275000Y-89000000D03*
%TD*%
D29*
%TO.C,J7*%
X93499999Y-82919999D03*
D30*
X93499999Y-85459999D03*
X93499999Y-87999999D03*
%TD*%
D13*
%TO.C,R9*%
X209325000Y-109500000D03*
X210975000Y-109500000D03*
%TD*%
D19*
%TO.C,R26*%
X108750000Y-91562500D03*
X108750000Y-89912500D03*
%TD*%
D38*
%TO.C,R1*%
X216800000Y-95137500D03*
X216800000Y-93312500D03*
%TD*%
M02*
