M48
; DRILL file {KiCad 7.0.0-1.fc37} date Tue 17 Oct 2023 19:49:40 CEST
; FORMAT={-:-/ absolute / inch / decimal}
; #@! TF.CreationDate,2023-10-17T19:49:40+02:00
; #@! TF.GenerationSoftware,Kicad,Pcbnew,7.0.0-1.fc37
; #@! TF.FileFunction,Plated,1,2,PTH
FMAT,2
INCH
; #@! TA.AperFunction,Plated,PTH,ViaDrill
T1C0.0157
; #@! TA.AperFunction,Plated,PTH,ComponentDrill
T2C0.0295
; #@! TA.AperFunction,Plated,PTH,ComponentDrill
T3C0.0315
; #@! TA.AperFunction,Plated,PTH,ComponentDrill
T4C0.0394
; #@! TA.AperFunction,Plated,PTH,ComponentDrill
T5C0.0472
; #@! TA.AperFunction,Plated,PTH,ComponentDrill
T6C0.0512
; #@! TA.AperFunction,Plated,PTH,ComponentDrill
T7C0.0591
; #@! TA.AperFunction,Plated,PTH,ComponentDrill
T8C0.0669
; #@! TA.AperFunction,Plated,PTH,ComponentDrill
T9C0.1260
; #@! TA.AperFunction,Plated,PTH,ComponentDrill
T10C0.1378
%
G90
G05
T1
X3.7697Y-3.5039
X3.9173Y-3.75
X4.1378Y-3.5394
X4.1663Y-3.4803
X4.205Y-3.4733
X4.2224Y-3.75
X4.2618Y-4.3209
X4.2618Y-4.3602
X4.2913Y-3.8091
X4.3012Y-4.3209
X4.3012Y-4.3602
X4.315Y-3.5706
X4.315Y-3.6535
X4.3209Y-4.2224
X4.3307Y-3.1693
X4.3504Y-3.126
X4.3661Y-3.1693
X4.3799Y-4.0059
X4.4134Y-3.1142
X4.439Y-4.5472
X4.439Y-4.5866
X4.4685Y-4.4193
X4.4783Y-3.9764
X4.4783Y-4.0354
X4.4783Y-4.5472
X4.4783Y-4.5866
X4.4843Y-2.9016
X4.4843Y-3.5276
X4.4953Y-3.5679
X4.5002Y-3.4916
X4.5118Y-3.1535
X4.5157Y-2.9843
X4.5177Y-4.2224
X4.5197Y-2.9016
X4.5276Y-4.3504
X4.5347Y-3.5679
X4.5551Y-2.9016
X4.5551Y-3.0236
X4.5733Y-3.5605
X4.5906Y-2.9016
X4.5945Y-3.063
X4.5965Y-3.8189
X4.6133Y-3.1017
X4.6732Y-3.8307
X4.6831Y-3.4173
X4.7126Y-3.748
X4.7205Y-3.7953
X4.7283Y-3.2087
X4.8425Y-3.4252
X4.8425Y-4.2638
X4.8622Y-3.5079
X4.9114Y-4.065
X4.9724Y-3.7018
X4.9764Y-3.5906
X5.0197Y-4.4193
X5.0197Y-4.4587
X5.0276Y-3.5945
X5.0354Y-3.8465
X5.0591Y-4.4193
X5.0591Y-4.4587
X5.0689Y-4.1339
X5.0787Y-3.626
X5.1181Y-3.5925
X5.129Y-3.4291
X5.1378Y-3.8681
X5.1378Y-4.1437
X5.1673Y-4.1831
X5.1772Y-3.8031
X5.185Y-4.2677
X5.2323Y-3.7835
X5.2362Y-3.5787
X5.2362Y-3.7205
X5.2362Y-3.8583
X5.2854Y-4.065
X5.4016Y-4.2481
X5.4409Y-3.8504
X5.4449Y-3.4213
X5.4567Y-3.6535
X5.4626Y-3.5773
X5.4685Y-3.8189
X5.4843Y-3.4409
X5.4921Y-3.9734
X5.5236Y-4.4291
X5.5512Y-3.6516
X5.5906Y-4.7638
X5.6742Y-4.1683
X5.7185Y-3.4547
X5.721Y-3.494
X5.7638Y-2.8976
X5.7972Y-3.9173
X5.7972Y-3.9567
X5.8268Y-4.7638
X5.8366Y-3.9173
X5.8366Y-3.9567
X5.8563Y-3.622
X5.9094Y-3.7441
X5.9213Y-4.3622
X5.9213Y-4.4134
X5.9213Y-4.5512
X6.0728Y-4.1142
X6.1575Y-3.7726
X6.2638Y-3.7362
X6.3386Y-3.8189
X6.4724Y-3.2283
X6.4921Y-4.3622
X6.5748Y-3.878
X6.7126Y-3.4252
X6.8622Y-3.9173
X6.9193Y-4.0846
X6.9193Y-4.124
X6.9213Y-3.689
X6.9587Y-4.0846
X6.9587Y-4.124
X7.0591Y-3.4764
X7.0787Y-4.2913
X7.185Y-2.9134
X7.185Y-2.9528
X7.2205Y-4.0472
X7.2244Y-2.9134
X7.2244Y-2.9528
X7.2677Y-4.189
X7.3465Y-4.3543
X7.3504Y-4.2756
X7.3555Y-4.0444
X7.3976Y-4.4134
X7.4016Y-4.2598
X7.4055Y-4.185
X7.5157Y-4.1339
X7.5276Y-4.0591
X7.5669Y-4.7638
X7.5709Y-3.9606
X7.5866Y-3.8386
X7.6575Y-3.9213
X7.8543Y-3.8701
X7.8622Y-3.5906
X7.8701Y-4.2815
X7.8701Y-4.3406
X7.9724Y-3.4291
X8.0768Y-4.3898
X8.0866Y-4.2224
X8.1063Y-4.1929
X8.1063Y-4.4193
X8.1102Y-3.7992
X8.1457Y-4.1929
X8.1457Y-4.4193
X8.185Y-4.1929
X8.185Y-4.4193
X8.2244Y-4.1929
X8.2244Y-4.4193
X8.2638Y-4.1929
X8.2638Y-4.4193
X8.2835Y-3.6181
X8.3031Y-4.1929
X8.3031Y-4.4193
X8.311Y-3.8858
X8.3346Y-3.6142
X8.3425Y-4.1929
X8.3425Y-4.4193
X8.3819Y-4.1929
X8.3819Y-4.4193
X8.3858Y-3.9055
X8.3937Y-3.6102
X8.4213Y-4.1929
X8.4213Y-4.4193
X8.4606Y-4.1929
X8.4606Y-4.4193
X8.4961Y-2.8071
X8.5Y-2.8819
X8.5Y-2.9567
X8.5Y-3.8898
X8.5Y-4.1929
X8.5Y-4.4193
X8.5039Y-3.5906
X8.5079Y-3.0315
X8.5394Y-4.1929
X8.5394Y-4.4193
X8.5591Y-3.5984
X8.5591Y-3.8819
X8.563Y-3.0984
X8.5787Y-4.4193
X8.6181Y-4.1929
X8.6181Y-4.4193
T2
X5.5724Y-5.1075
X5.5724Y-5.1575
X5.5724Y-5.2075
T3
X5.7736Y-3.8445
X5.9114Y-3.8445
X6.0551Y-4.4685
X6.0551Y-4.5685
X6.0551Y-4.6685
X6.0551Y-4.7685
X6.3551Y-4.4685
X6.3551Y-4.5685
X6.3551Y-4.6685
X6.3551Y-4.7685
X6.7579Y-4.5965
X6.7579Y-4.7343
X7.0433Y-3.6142
X7.0433Y-3.7142
X7.0433Y-3.8142
X7.0433Y-3.9142
X7.3433Y-3.6142
X7.3433Y-3.7142
X7.3433Y-3.8142
X7.3433Y-3.9142
X7.7776Y-4.6713
X7.7776Y-4.8091
X7.7894Y-3.2972
X7.7894Y-3.435
T4
X3.6811Y-3.2646
X3.6811Y-3.3646
X3.6811Y-3.4646
X4.0118Y-5.2835
X4.0323Y-3.0118
X4.1323Y-3.0118
X4.2323Y-3.0118
X4.248Y-4.8228
X4.2579Y-5.0827
X4.2579Y-5.3307
X4.3323Y-3.0118
X4.348Y-4.8228
X4.4323Y-3.0118
X4.448Y-4.8228
X4.548Y-4.8228
X4.5531Y-5.0827
X4.5531Y-5.3307
X4.648Y-4.8228
X4.748Y-4.8228
X4.848Y-4.8228
X4.948Y-4.8228
X4.9756Y-3.0118
X5.048Y-4.8228
X5.0756Y-3.0118
X5.148Y-4.8228
X5.1756Y-3.0118
X5.248Y-4.8228
X5.2756Y-3.0118
X5.348Y-4.8228
X5.3756Y-3.0118
X5.448Y-4.8228
X5.4756Y-3.0118
X5.548Y-4.8228
X5.648Y-4.8228
X5.748Y-4.8228
X6.0787Y-3.3504
X6.0787Y-3.6496
X8.7559Y-3.2661
X8.7559Y-3.3661
X8.7559Y-3.4661
X8.7559Y-3.5661
X8.9094Y-3.2661
X8.9094Y-3.3661
T5
X7.2205Y-2.626
X7.2205Y-2.8228
T6
X3.5315Y-3.7707
X3.7283Y-3.6722
X3.7283Y-3.8691
T7
X8.8154Y-4.311
T8
X8.7154Y-4.211
X8.7154Y-4.411
X8.9154Y-4.211
X8.9154Y-4.411
T9
X4.1142Y-2.5197
X4.1142Y-5.5906
X8.3268Y-2.5197
X8.3268Y-5.5906
T10
X3.9535Y-3.3268
X3.9535Y-4.7835
X8.4811Y-3.3268
X8.4811Y-4.7835
T0
M30
